. 
  
http://www.torrentday.com   -    Your Key To The Scene.

Now TvTeam with [No-RAR] Releases.

(((((((((((((= Enjoy No RAR releases =))))))))))))))))))))

...................................NFO:....................................

.      *********** ****    ****      ***      ******** *********** ****    *** **********
           *+*     +*+*+* *+*+*+   *+* *+*   *+*    *+*    *+*     *+*+*   *+* *+*        
           +*+     +*+ +*+*+ +*+  +*+   +*+  +*+           +*+     *+*+*+  +*+ +*+        
           +$+     +$+  +*+  +$+ +$++*++$++* *$*           +$+     +$+ +*+ +$+ +$++*++$  
           +$+     +$+       +$+ +$+     +$+ +$+   +$+$    +$+     +$+  +$+$+$ +$+        
           $+$     $+$       $+$ $+$     $+$ $+$    $+$    $+$     $+$   $+$+$ $+$        
       $$$$$$$$$$$ $$$       $$$ $$$     $$$  $$$$$$$$ $$$$$$$$$$$ $$$    $$$$ $$$$$$$$$$     
                                                



                           Another Fine Release Brought to you from - IMAGiNE                   
                                                 http://imaginegroup.me/

********************************************************************************************************************                                
               A Nightmare On Elm Street 2010 READNFO TS XViD IMAGiNE
********************************************************************************************************************

Ripper ...........: IMAGiNE                                        IMDB Rating.......:5.7/10                             
Video Codec.......: XVID                                         Release Date......:09/05/10
Audio Codec.......:MP3                                           Theatre Date......:07/05/10
Audio Bitrate.....:128                                              Runtime.......:1h 24mn
Subtitles.........:NIL                                                 Language..........:ENGLISH
Resolution...... 720 x 288                                      IMDb URL..........:http://www.imdb.com/title/tt1179056/


[color=yellow]DETAILS:[/color]

Video
Format                           : MPEG-4 Visual
Format profile                   : Streaming Video@L1
Format settings, BVOP            : Yes
Format settings, QPel            : No
Format settings, GMC             : No warppoints
Format settings, Matrix          : Default
Muxing mode                      : Packed bitstream
Codec ID                         : XVID
Codec ID/Hint                    : XviD
Duration                         : 1h 29mn
Bit rate                         : 2 065 Kbps
Width                            : 720 pixels
Height                           : 288 pixels
Display aspect ratio             : 2.500
Frame rate                       : 23.976 fps
Resolution                       : 24 bits
Colorimetry                      : 4:2:0
Scan type                        : Progressive
Bits/(Pixel*Frame)               : 0.415
Stream size                      : 1.29 GiB (94%)
Writing library                  : XviD 50

Audio
Format                           : MPEG Audio
Format version                   : Version 1
Format profile                   : Layer 3
Codec ID                         : 55
Codec ID/Hint                    : MP3
Duration                         : 1h 29mn
Bit rate mode                    : Constant
Bit rate                         : 128 Kbps
Channel(s)                       : 2 channels
Sampling rate                    : 44.1 KHz
Resolution                       : 16 bits
Video delay                      : 14ms
Stream size                      : 82.0 MiB (6%)
Alignment                        : Split accross interleaves
Interleave, duration             : 42 ms (1.00 video frame)
Interleave, preload duration     : 500 ms

[color=yellow]NOTES:[/color]

IMAGiNE bringing you another release.....A Nightmare on Elm St
Well here you go with a new source video and audio wise......
Work done....well loads :P
Sharpness,contrast,rotating video,syncing,colour you name it......
Yes contrast is slightly off but if made any darker it would be too dark and any brighter would
make glares alot stronger so .....

Anyway enjoy .....
Next should be IM2 with new video inc eng subs hardcoded when needed :P


[color=yellow]SCREENS:[/color]




[/IMG]


[color=yellow]GREETS:[/color]

FLAWL3SS,ViSiON,FUSiON,Rx,SecretMyth,BirdFlu,ELEKTRI4KA
And to all the other p2p grps past and present 

[COLOR=RED]Special shout out to Gamer for taking on the site ...cheers bro[/COLOR]


Special thanks to Python-Lair for the server :)
And special thanks to supreme-speeds.com for the ripbox :)

[COLOR=RED]Looking for these,syncers,cammers,silver supplier.....Have anything to offer????......
Contact us imaginegroup@hushmail.com[/COLOR]